<svg width="427" height="46" viewBox="0 0 427 46" fill="none" xmlns="http://www.w3.org/2000/svg">
<path d="M25.936 18L23.362 14.31C23.254 14.322 23.092 14.328 22.876 14.328H20.032V18H17.692V5.4H22.876C23.968 5.4 24.916 5.58 25.72 5.94C26.536 6.3 27.16 6.816 27.592 7.488C28.024 8.16 28.24 8.958 28.24 9.882C28.24 10.83 28.006 11.646 27.538 12.33C27.082 13.014 26.422 13.524 25.558 13.86L28.456 18H25.936ZM25.882 9.882C25.882 9.078 25.618 8.46 25.09 8.028C24.562 7.596 23.788 7.38 22.768 7.38H20.032V12.402H22.768C23.788 12.402 24.562 12.186 25.09 11.754C25.618 11.31 25.882 10.686 25.882 9.882ZM39.858 14.436C39.858 15.408 39.498 16.236 38.778 16.92C38.07 17.592 37.038 18 35.682 18.144V20.16H34.206V18.162C33.318 18.102 32.478 17.94 31.686 17.676C30.894 17.412 30.264 17.076 29.796 16.668L30.606 14.85C31.05 15.21 31.59 15.516 32.226 15.768C32.862 16.008 33.522 16.158 34.206 16.218V12.618C33.354 12.414 32.64 12.192 32.064 11.952C31.5 11.7 31.026 11.34 30.642 10.872C30.258 10.392 30.066 9.762 30.066 8.982C30.066 8.01 30.42 7.182 31.128 6.498C31.836 5.814 32.862 5.406 34.206 5.274V3.24H35.682V5.238C36.354 5.274 37.008 5.388 37.644 5.58C38.292 5.772 38.856 6.024 39.336 6.336L38.598 8.154C37.686 7.626 36.714 7.302 35.682 7.182V10.818C36.546 11.022 37.26 11.244 37.824 11.484C38.4 11.724 38.88 12.084 39.264 12.564C39.66 13.032 39.858 13.656 39.858 14.436ZM32.388 8.874C32.388 9.27 32.544 9.588 32.856 9.828C33.168 10.068 33.618 10.272 34.206 10.44V7.236C33.594 7.332 33.138 7.524 32.838 7.812C32.538 8.1 32.388 8.454 32.388 8.874ZM35.682 16.182C36.318 16.086 36.786 15.9 37.086 15.624C37.398 15.348 37.554 15.006 37.554 14.598C37.554 14.19 37.392 13.866 37.068 13.626C36.744 13.374 36.282 13.164 35.682 12.996V16.182ZM51.6169 10.602C52.7809 10.746 53.6689 11.142 54.2809 11.79C54.8929 12.438 55.1989 13.248 55.1989 14.22C55.1989 14.952 55.0129 15.618 54.6409 16.218C54.2689 16.818 53.7049 17.298 52.9489 17.658C52.2049 18.006 51.2929 18.18 50.2129 18.18C49.3129 18.18 48.4429 18.054 47.6029 17.802C46.7749 17.538 46.0669 17.178 45.4789 16.722L46.4869 14.904C46.9429 15.288 47.4949 15.594 48.1429 15.822C48.8029 16.038 49.4809 16.146 50.1769 16.146C51.0049 16.146 51.6529 15.978 52.1209 15.642C52.6009 15.294 52.8409 14.826 52.8409 14.238C52.8409 13.65 52.6129 13.194 52.1569 12.87C51.7129 12.534 51.0289 12.366 50.1049 12.366H48.9529V10.764L51.8149 7.362H46.0909V5.4H54.6769V6.966L51.6169 10.602ZM58.1335 18.126C57.7255 18.126 57.3775 17.988 57.0895 17.712C56.8015 17.424 56.6575 17.064 56.6575 16.632C56.6575 16.188 56.7955 15.828 57.0715 15.552C57.3595 15.276 57.7135 15.138 58.1335 15.138C58.5535 15.138 58.9015 15.276 59.1775 15.552C59.4655 15.828 59.6095 16.188 59.6095 16.632C59.6095 17.064 59.4655 17.424 59.1775 17.712C58.8895 17.988 58.5415 18.126 58.1335 18.126ZM65.372 5.22C67.1 5.22 68.438 5.76 69.386 6.84C70.346 7.92 70.826 9.468 70.826 11.484C70.826 12.9 70.568 14.112 70.052 15.12C69.536 16.116 68.81 16.878 67.874 17.406C66.95 17.922 65.876 18.18 64.652 18.18C64.004 18.18 63.392 18.114 62.816 17.982C62.252 17.838 61.76 17.634 61.34 17.37L62.204 15.606C62.828 16.014 63.626 16.218 64.598 16.218C65.81 16.218 66.758 15.846 67.442 15.102C68.126 14.358 68.468 13.284 68.468 11.88V11.862C68.096 12.294 67.622 12.624 67.046 12.852C66.47 13.068 65.822 13.176 65.102 13.176C64.274 13.176 63.53 13.02 62.87 12.708C62.21 12.384 61.694 11.928 61.322 11.34C60.95 10.752 60.764 10.074 60.764 9.306C60.764 8.49 60.968 7.776 61.376 7.164C61.784 6.54 62.336 6.06 63.032 5.724C63.728 5.388 64.508 5.22 65.372 5.22ZM65.552 11.34C66.308 11.34 66.92 11.136 67.388 10.728C67.868 10.32 68.108 9.804 68.108 9.18C68.108 8.568 67.874 8.064 67.406 7.668C66.95 7.26 66.314 7.056 65.498 7.056C64.766 7.056 64.172 7.254 63.716 7.65C63.26 8.034 63.032 8.55 63.032 9.198C63.032 9.858 63.26 10.38 63.716 10.764C64.172 11.148 64.784 11.34 65.552 11.34ZM78.1332 10.224C78.9612 10.224 79.7052 10.386 80.3652 10.71C81.0252 11.022 81.5412 11.472 81.9132 12.06C82.2852 12.648 82.4712 13.326 82.4712 14.094C82.4712 14.91 82.2672 15.63 81.8592 16.254C81.4512 16.866 80.8992 17.34 80.2032 17.676C79.5072 18.012 78.7272 18.18 77.8632 18.18C76.1352 18.18 74.7912 17.64 73.8312 16.56C72.8832 15.48 72.4092 13.932 72.4092 11.916C72.4092 10.5 72.6672 9.294 73.1832 8.298C73.6992 7.29 74.4192 6.528 75.3432 6.012C76.2792 5.484 77.3592 5.22 78.5832 5.22C79.2312 5.22 79.8372 5.292 80.4012 5.436C80.9772 5.568 81.4752 5.766 81.8952 6.03L81.0312 7.794C80.4072 7.386 79.6092 7.182 78.6372 7.182C77.4252 7.182 76.4772 7.554 75.7932 8.298C75.1092 9.042 74.7672 10.116 74.7672 11.52V11.538C75.1392 11.106 75.6132 10.782 76.1892 10.566C76.7652 10.338 77.4132 10.224 78.1332 10.224ZM77.7372 16.344C78.4692 16.344 79.0632 16.152 79.5192 15.768C79.9752 15.372 80.2032 14.85 80.2032 14.202C80.2032 13.542 79.9752 13.02 79.5192 12.636C79.0632 12.252 78.4512 12.06 77.6832 12.06C76.9272 12.06 76.3092 12.264 75.8292 12.672C75.3612 13.08 75.1272 13.596 75.1272 14.22C75.1272 14.832 75.3552 15.342 75.8112 15.75C76.2792 16.146 76.9212 16.344 77.7372 16.344ZM91.8663 11.376C92.5263 11.676 93.0303 12.084 93.3783 12.6C93.7383 13.104 93.9183 13.698 93.9183 14.382C93.9183 15.15 93.7023 15.822 93.2703 16.398C92.8503 16.974 92.2503 17.418 91.4703 17.73C90.6903 18.03 89.7843 18.18 88.7523 18.18C87.7203 18.18 86.8143 18.03 86.0343 17.73C85.2663 17.418 84.6723 16.974 84.2523 16.398C83.8323 15.822 83.6223 15.15 83.6223 14.382C83.6223 13.698 83.7963 13.104 84.1443 12.6C84.4923 12.084 84.9903 11.676 85.6383 11.376C85.1343 11.1 84.7443 10.74 84.4683 10.296C84.2043 9.84 84.0723 9.318 84.0723 8.73C84.0723 8.022 84.2643 7.404 84.6483 6.876C85.0443 6.348 85.5963 5.94 86.3043 5.652C87.0123 5.364 87.8283 5.22 88.7523 5.22C89.6883 5.22 90.5103 5.364 91.2183 5.652C91.9263 5.94 92.4783 6.348 92.8743 6.876C93.2703 7.404 93.4683 8.022 93.4683 8.73C93.4683 9.318 93.3303 9.834 93.0543 10.278C92.7783 10.722 92.3823 11.088 91.8663 11.376ZM88.7523 7.056C88.0203 7.056 87.4383 7.212 87.0063 7.524C86.5863 7.836 86.3763 8.274 86.3763 8.838C86.3763 9.378 86.5863 9.81 87.0063 10.134C87.4383 10.446 88.0203 10.602 88.7523 10.602C89.4963 10.602 90.0843 10.446 90.5163 10.134C90.9483 9.81 91.1643 9.378 91.1643 8.838C91.1643 8.274 90.9423 7.836 90.4983 7.524C90.0663 7.212 89.4843 7.056 88.7523 7.056ZM88.7523 16.344C89.6163 16.344 90.3003 16.164 90.8043 15.804C91.3083 15.444 91.5603 14.946 91.5603 14.31C91.5603 13.686 91.3083 13.194 90.8043 12.834C90.3003 12.474 89.6163 12.294 88.7523 12.294C87.8883 12.294 87.2103 12.474 86.7183 12.834C86.2263 13.194 85.9803 13.686 85.9803 14.31C85.9803 14.946 86.2263 15.444 86.7183 15.804C87.2103 16.164 87.8883 16.344 88.7523 16.344ZM97.0343 15.138C97.4543 15.138 97.8023 15.276 98.0783 15.552C98.3543 15.828 98.4923 16.188 98.4923 16.632C98.4923 16.824 98.4623 17.028 98.4023 17.244C98.3543 17.448 98.2463 17.76 98.0783 18.18L97.1603 20.718H95.7023L96.4223 17.964C96.1583 17.856 95.9483 17.688 95.7923 17.46C95.6483 17.22 95.5763 16.944 95.5763 16.632C95.5763 16.188 95.7143 15.828 95.9903 15.552C96.2663 15.276 96.6143 15.138 97.0343 15.138ZM105.547 10.602C106.711 10.746 107.599 11.142 108.211 11.79C108.823 12.438 109.129 13.248 109.129 14.22C109.129 14.952 108.943 15.618 108.571 16.218C108.199 16.818 107.635 17.298 106.879 17.658C106.135 18.006 105.223 18.18 104.143 18.18C103.243 18.18 102.373 18.054 101.533 17.802C100.705 17.538 99.9966 17.178 99.4086 16.722L100.417 14.904C100.873 15.288 101.425 15.594 102.073 15.822C102.733 16.038 103.411 16.146 104.107 16.146C104.935 16.146 105.583 15.978 106.051 15.642C106.531 15.294 106.771 14.826 106.771 14.238C106.771 13.65 106.543 13.194 106.087 12.87C105.643 12.534 104.959 12.366 104.035 12.366H102.883V10.764L105.745 7.362H100.021V5.4H108.607V6.966L105.547 10.602ZM119.697 16.02V18H110.409V16.434L115.413 11.682C115.977 11.142 116.355 10.674 116.547 10.278C116.751 9.87 116.853 9.468 116.853 9.072C116.853 8.484 116.655 8.034 116.259 7.722C115.863 7.41 115.281 7.254 114.513 7.254C113.229 7.254 112.245 7.692 111.561 8.568L109.923 7.308C110.415 6.648 111.075 6.138 111.903 5.778C112.743 5.406 113.679 5.22 114.711 5.22C116.079 5.22 117.171 5.544 117.987 6.192C118.803 6.84 119.211 7.722 119.211 8.838C119.211 9.522 119.067 10.164 118.779 10.764C118.491 11.364 117.939 12.048 117.123 12.816L113.757 16.02H119.697Z" fill="black"/>
<path d="M18.47 29.2H19.87V37.782H25.176V39H18.47V29.2ZM26.5865 31.58H27.9305V39H26.5865V31.58ZM27.2585 30.152C26.9972 30.152 26.7778 30.068 26.6005 29.9C26.4325 29.732 26.3485 29.5267 26.3485 29.284C26.3485 29.0413 26.4325 28.836 26.6005 28.668C26.7778 28.4907 26.9972 28.402 27.2585 28.402C27.5198 28.402 27.7345 28.486 27.9025 28.654C28.0798 28.8127 28.1685 29.0133 28.1685 29.256C28.1685 29.508 28.0798 29.7227 27.9025 29.9C27.7345 30.068 27.5198 30.152 27.2585 30.152ZM39.7787 31.51C40.712 31.51 41.4493 31.7807 41.9907 32.322C42.5413 32.8633 42.8167 33.666 42.8167 34.73V39H41.4727V34.884C41.4727 34.1653 41.3047 33.624 40.9687 33.26C40.642 32.896 40.1707 32.714 39.5547 32.714C38.8733 32.714 38.332 32.9287 37.9307 33.358C37.5293 33.778 37.3287 34.3847 37.3287 35.178V39H35.9847V34.884C35.9847 34.1653 35.8167 33.624 35.4807 33.26C35.154 32.896 34.6827 32.714 34.0667 32.714C33.3853 32.714 32.844 32.9287 32.4427 33.358C32.0413 33.778 31.8407 34.3847 31.8407 35.178V39H30.4967V31.58H31.7847V32.686C32.0553 32.3033 32.41 32.014 32.8487 31.818C33.2873 31.6127 33.7867 31.51 34.3467 31.51C34.9253 31.51 35.4387 31.6267 35.8867 31.86C36.3347 32.0933 36.68 32.434 36.9227 32.882C37.2027 32.4527 37.59 32.1167 38.0847 31.874C38.5887 31.6313 39.1533 31.51 39.7787 31.51ZM45.2896 31.58H46.6336V39H45.2896V31.58ZM45.9616 30.152C45.7003 30.152 45.481 30.068 45.3036 29.9C45.1356 29.732 45.0516 29.5267 45.0516 29.284C45.0516 29.0413 45.1356 28.836 45.3036 28.668C45.481 28.4907 45.7003 28.402 45.9616 28.402C46.223 28.402 46.4376 28.486 46.6056 28.654C46.783 28.8127 46.8716 29.0133 46.8716 29.256C46.8716 29.508 46.783 29.7227 46.6056 29.9C46.4376 30.068 46.223 30.152 45.9616 30.152ZM53.3718 38.566C53.1758 38.734 52.9331 38.8647 52.6438 38.958C52.3544 39.042 52.0558 39.084 51.7478 39.084C51.0011 39.084 50.4224 38.8833 50.0118 38.482C49.6011 38.0807 49.3958 37.5067 49.3958 36.76V32.686H48.1358V31.58H49.3958V29.956H50.7398V31.58H52.8678V32.686H50.7398V36.704C50.7398 37.1053 50.8378 37.4133 51.0338 37.628C51.2391 37.8427 51.5284 37.95 51.9018 37.95C52.3124 37.95 52.6624 37.8333 52.9518 37.6L53.3718 38.566ZM61.4566 35.332C61.4566 35.4347 61.4472 35.57 61.4286 35.738H55.4086C55.4926 36.3913 55.7772 36.9187 56.2626 37.32C56.7572 37.712 57.3686 37.908 58.0966 37.908C58.9832 37.908 59.6972 37.6093 60.2386 37.012L60.9806 37.88C60.6446 38.272 60.2246 38.5707 59.7206 38.776C59.2259 38.9813 58.6706 39.084 58.0546 39.084C57.2706 39.084 56.5752 38.9253 55.9686 38.608C55.3619 38.2813 54.8906 37.8287 54.5546 37.25C54.2279 36.6713 54.0646 36.018 54.0646 35.29C54.0646 34.5713 54.2232 33.9227 54.5406 33.344C54.8672 32.7653 55.3106 32.3173 55.8706 32C56.4399 31.6733 57.0792 31.51 57.7886 31.51C58.4979 31.51 59.1279 31.6733 59.6786 32C60.2386 32.3173 60.6726 32.7653 60.9806 33.344C61.2979 33.9227 61.4566 34.5853 61.4566 35.332ZM57.7886 32.644C57.1446 32.644 56.6032 32.84 56.1646 33.232C55.7352 33.624 55.4832 34.1373 55.4086 34.772H60.1686C60.0939 34.1467 59.8372 33.638 59.3986 33.246C58.9692 32.8447 58.4326 32.644 57.7886 32.644ZM74.0826 28.612V39H72.7946V37.824C72.4959 38.2347 72.1179 38.5473 71.6606 38.762C71.2033 38.9767 70.6993 39.084 70.1486 39.084C69.4299 39.084 68.7859 38.9253 68.2166 38.608C67.6473 38.2907 67.1993 37.8473 66.8726 37.278C66.5553 36.6993 66.3966 36.0367 66.3966 35.29C66.3966 34.5433 66.5553 33.8853 66.8726 33.316C67.1993 32.7467 67.6473 32.3033 68.2166 31.986C68.7859 31.6687 69.4299 31.51 70.1486 31.51C70.6806 31.51 71.1706 31.6127 71.6186 31.818C72.0666 32.014 72.4399 32.308 72.7386 32.7V28.612H74.0826ZM70.2606 37.908C70.7273 37.908 71.1519 37.8007 71.5346 37.586C71.9173 37.362 72.2159 37.054 72.4306 36.662C72.6453 36.2607 72.7526 35.8033 72.7526 35.29C72.7526 34.7767 72.6453 34.324 72.4306 33.932C72.2159 33.5307 71.9173 33.2227 71.5346 33.008C71.1519 32.7933 70.7273 32.686 70.2606 32.686C69.7846 32.686 69.3553 32.7933 68.9726 33.008C68.5993 33.2227 68.3006 33.5307 68.0766 33.932C67.8619 34.324 67.7546 34.7767 67.7546 35.29C67.7546 35.8033 67.8619 36.2607 68.0766 36.662C68.3006 37.054 68.5993 37.362 68.9726 37.586C69.3553 37.8007 69.7846 37.908 70.2606 37.908ZM76.6256 31.58H77.9696V39H76.6256V31.58ZM77.2976 30.152C77.0362 30.152 76.8169 30.068 76.6396 29.9C76.4716 29.732 76.3876 29.5267 76.3876 29.284C76.3876 29.0413 76.4716 28.836 76.6396 28.668C76.8169 28.4907 77.0362 28.402 77.2976 28.402C77.5589 28.402 77.7736 28.486 77.9416 28.654C78.1189 28.8127 78.2076 29.0133 78.2076 29.256C78.2076 29.508 78.1189 29.7227 77.9416 29.9C77.7736 30.068 77.5589 30.152 77.2976 30.152ZM82.6637 39.084C82.0571 39.084 81.4737 39.0047 80.9137 38.846C80.3537 38.678 79.9151 38.468 79.5977 38.216L80.1577 37.152C80.4844 37.3853 80.8811 37.572 81.3477 37.712C81.8144 37.852 82.2857 37.922 82.7617 37.922C83.9377 37.922 84.5257 37.586 84.5257 36.914C84.5257 36.69 84.4464 36.5127 84.2877 36.382C84.1291 36.2513 83.9284 36.158 83.6857 36.102C83.4524 36.0367 83.1164 35.9667 82.6777 35.892C82.0804 35.7987 81.5904 35.6913 81.2077 35.57C80.8344 35.4487 80.5124 35.2433 80.2417 34.954C79.9711 34.6647 79.8357 34.2587 79.8357 33.736C79.8357 33.064 80.1157 32.5273 80.6757 32.126C81.2357 31.7153 81.9871 31.51 82.9297 31.51C83.4244 31.51 83.9191 31.5707 84.4137 31.692C84.9084 31.8133 85.3144 31.9767 85.6317 32.182L85.0577 33.246C84.4511 32.854 83.7371 32.658 82.9157 32.658C82.3464 32.658 81.9124 32.7513 81.6137 32.938C81.3151 33.1247 81.1657 33.372 81.1657 33.68C81.1657 33.9227 81.2497 34.114 81.4177 34.254C81.5857 34.394 81.7911 34.4967 82.0337 34.562C82.2857 34.6273 82.6357 34.702 83.0837 34.786C83.6811 34.8887 84.1617 35.0007 84.5257 35.122C84.8991 35.234 85.2164 35.43 85.4777 35.71C85.7391 35.99 85.8697 36.382 85.8697 36.886C85.8697 37.558 85.5804 38.0947 85.0017 38.496C84.4324 38.888 83.6531 39.084 82.6637 39.084ZM91.4834 31.51C92.2021 31.51 92.8461 31.6687 93.4154 31.986C93.9847 32.3033 94.4281 32.7467 94.7454 33.316C95.0721 33.8853 95.2354 34.5433 95.2354 35.29C95.2354 36.0367 95.0721 36.6993 94.7454 37.278C94.4281 37.8473 93.9847 38.2907 93.4154 38.608C92.8461 38.9253 92.2021 39.084 91.4834 39.084C90.9514 39.084 90.4614 38.9813 90.0134 38.776C89.5747 38.5707 89.2014 38.272 88.8934 37.88V41.716H87.5494V31.58H88.8374V32.756C89.1361 32.3453 89.5141 32.0373 89.9714 31.832C90.4287 31.6173 90.9327 31.51 91.4834 31.51ZM91.3714 37.908C91.8474 37.908 92.2721 37.8007 92.6454 37.586C93.0281 37.362 93.3267 37.054 93.5414 36.662C93.7654 36.2607 93.8774 35.8033 93.8774 35.29C93.8774 34.7767 93.7654 34.324 93.5414 33.932C93.3267 33.5307 93.0281 33.2227 92.6454 33.008C92.2721 32.7933 91.8474 32.686 91.3714 32.686C90.9047 32.686 90.4801 32.798 90.0974 33.022C89.7241 33.2367 89.4254 33.54 89.2014 33.932C88.9867 34.324 88.8794 34.7767 88.8794 35.29C88.8794 35.8033 88.9867 36.2607 89.2014 36.662C89.4161 37.054 89.7147 37.362 90.0974 37.586C90.4801 37.8007 90.9047 37.908 91.3714 37.908ZM100.27 39.084C99.533 39.084 98.8704 38.9207 98.2824 38.594C97.6944 38.2673 97.2324 37.8193 96.8964 37.25C96.5697 36.6713 96.4064 36.018 96.4064 35.29C96.4064 34.562 96.5697 33.9133 96.8964 33.344C97.2324 32.7653 97.6944 32.3173 98.2824 32C98.8704 31.6733 99.533 31.51 100.27 31.51C101.008 31.51 101.666 31.6733 102.244 32C102.832 32.3173 103.29 32.7653 103.616 33.344C103.952 33.9133 104.12 34.562 104.12 35.29C104.12 36.018 103.952 36.6713 103.616 37.25C103.29 37.8193 102.832 38.2673 102.244 38.594C101.666 38.9207 101.008 39.084 100.27 39.084ZM100.27 37.908C100.746 37.908 101.171 37.8007 101.544 37.586C101.927 37.362 102.226 37.054 102.44 36.662C102.655 36.2607 102.762 35.8033 102.762 35.29C102.762 34.7767 102.655 34.324 102.44 33.932C102.226 33.5307 101.927 33.2227 101.544 33.008C101.171 32.7933 100.746 32.686 100.27 32.686C99.7944 32.686 99.365 32.7933 98.9824 33.008C98.609 33.2227 98.3104 33.5307 98.0864 33.932C97.8717 34.324 97.7644 34.7767 97.7644 35.29C97.7644 35.8033 97.8717 36.2607 98.0864 36.662C98.3104 37.054 98.609 37.362 98.9824 37.586C99.365 37.8007 99.7944 37.908 100.27 37.908ZM109.941 31.51C110.884 31.51 111.63 31.7853 112.181 32.336C112.741 32.8773 113.021 33.6753 113.021 34.73V39H111.677V34.884C111.677 34.1653 111.504 33.624 111.159 33.26C110.814 32.896 110.319 32.714 109.675 32.714C108.947 32.714 108.373 32.9287 107.953 33.358C107.533 33.778 107.323 34.3847 107.323 35.178V39H105.979V31.58H107.267V32.7C107.538 32.3173 107.902 32.0233 108.359 31.818C108.826 31.6127 109.353 31.51 109.941 31.51ZM115.508 31.58H116.852V39H115.508V31.58ZM117.034 28.682H118.742L116.39 30.502H115.13L117.034 28.682ZM125.985 31.58L122.737 39H121.365L118.117 31.58H119.517L122.065 37.53L124.669 31.58H125.985ZM133.74 35.332C133.74 35.4347 133.73 35.57 133.712 35.738H127.692C127.776 36.3913 128.06 36.9187 128.546 37.32C129.04 37.712 129.652 37.908 130.38 37.908C131.266 37.908 131.98 37.6093 132.522 37.012L133.264 37.88C132.928 38.272 132.508 38.5707 132.004 38.776C131.509 38.9813 130.954 39.084 130.338 39.084C129.554 39.084 128.858 38.9253 128.252 38.608C127.645 38.2813 127.174 37.8287 126.838 37.25C126.511 36.6713 126.348 36.018 126.348 35.29C126.348 34.5713 126.506 33.9227 126.824 33.344C127.15 32.7653 127.594 32.3173 128.154 32C128.723 31.6733 129.362 31.51 130.072 31.51C130.781 31.51 131.411 31.6733 131.962 32C132.522 32.3173 132.956 32.7653 133.264 33.344C133.581 33.9227 133.74 34.5853 133.74 35.332ZM130.072 32.644C129.428 32.644 128.886 32.84 128.448 33.232C128.018 33.624 127.766 34.1373 127.692 34.772H132.452C132.377 34.1467 132.12 33.638 131.682 33.246C131.252 32.8447 130.716 32.644 130.072 32.644ZM135.606 28.612H136.95V39H135.606V28.612Z" fill="#7A7A80"/>
<circle cx="3" cy="23" r="3" fill="#00DD16"/>
<path d="M188.936 18L186.362 14.31C186.254 14.322 186.092 14.328 185.876 14.328H183.032V18H180.692V5.4H185.876C186.968 5.4 187.916 5.58 188.72 5.94C189.536 6.3 190.16 6.816 190.592 7.488C191.024 8.16 191.24 8.958 191.24 9.882C191.24 10.83 191.006 11.646 190.538 12.33C190.082 13.014 189.422 13.524 188.558 13.86L191.456 18H188.936ZM188.882 9.882C188.882 9.078 188.618 8.46 188.09 8.028C187.562 7.596 186.788 7.38 185.768 7.38H183.032V12.402H185.768C186.788 12.402 187.562 12.186 188.09 11.754C188.618 11.31 188.882 10.686 188.882 9.882ZM202.858 14.436C202.858 15.408 202.498 16.236 201.778 16.92C201.07 17.592 200.038 18 198.682 18.144V20.16H197.206V18.162C196.318 18.102 195.478 17.94 194.686 17.676C193.894 17.412 193.264 17.076 192.796 16.668L193.606 14.85C194.05 15.21 194.59 15.516 195.226 15.768C195.862 16.008 196.522 16.158 197.206 16.218V12.618C196.354 12.414 195.64 12.192 195.064 11.952C194.5 11.7 194.026 11.34 193.642 10.872C193.258 10.392 193.066 9.762 193.066 8.982C193.066 8.01 193.42 7.182 194.128 6.498C194.836 5.814 195.862 5.406 197.206 5.274V3.24H198.682V5.238C199.354 5.274 200.008 5.388 200.644 5.58C201.292 5.772 201.856 6.024 202.336 6.336L201.598 8.154C200.686 7.626 199.714 7.302 198.682 7.182V10.818C199.546 11.022 200.26 11.244 200.824 11.484C201.4 11.724 201.88 12.084 202.264 12.564C202.66 13.032 202.858 13.656 202.858 14.436ZM195.388 8.874C195.388 9.27 195.544 9.588 195.856 9.828C196.168 10.068 196.618 10.272 197.206 10.44V7.236C196.594 7.332 196.138 7.524 195.838 7.812C195.538 8.1 195.388 8.454 195.388 8.874ZM198.682 16.182C199.318 16.086 199.786 15.9 200.086 15.624C200.398 15.348 200.554 15.006 200.554 14.598C200.554 14.19 200.392 13.866 200.068 13.626C199.744 13.374 199.282 13.164 198.682 12.996V16.182ZM220.485 15.138H218.253V18H215.985V15.138H209.073V13.518L215.283 5.4H217.785L211.935 13.158H216.057V10.62H218.253V13.158H220.485V15.138ZM225.369 5.4V18H223.029V7.362H220.365V5.4H225.369ZM233.592 10.224C234.42 10.224 235.164 10.386 235.824 10.71C236.484 11.022 237 11.472 237.372 12.06C237.744 12.648 237.93 13.326 237.93 14.094C237.93 14.91 237.726 15.63 237.318 16.254C236.91 16.866 236.358 17.34 235.662 17.676C234.966 18.012 234.186 18.18 233.322 18.18C231.594 18.18 230.25 17.64 229.29 16.56C228.342 15.48 227.868 13.932 227.868 11.916C227.868 10.5 228.126 9.294 228.642 8.298C229.158 7.29 229.878 6.528 230.802 6.012C231.738 5.484 232.818 5.22 234.042 5.22C234.69 5.22 235.296 5.292 235.86 5.436C236.436 5.568 236.934 5.766 237.354 6.03L236.49 7.794C235.866 7.386 235.068 7.182 234.096 7.182C232.884 7.182 231.936 7.554 231.252 8.298C230.568 9.042 230.226 10.116 230.226 11.52V11.538C230.598 11.106 231.072 10.782 231.648 10.566C232.224 10.338 232.872 10.224 233.592 10.224ZM233.196 16.344C233.928 16.344 234.522 16.152 234.978 15.768C235.434 15.372 235.662 14.85 235.662 14.202C235.662 13.542 235.434 13.02 234.978 12.636C234.522 12.252 233.91 12.06 233.142 12.06C232.386 12.06 231.768 12.264 231.288 12.672C230.82 13.08 230.586 13.596 230.586 14.22C230.586 14.832 230.814 15.342 231.27 15.75C231.738 16.146 232.38 16.344 233.196 16.344ZM240.751 15.138C241.171 15.138 241.519 15.276 241.795 15.552C242.071 15.828 242.209 16.188 242.209 16.632C242.209 16.824 242.179 17.028 242.119 17.244C242.071 17.448 241.963 17.76 241.795 18.18L240.877 20.718H239.419L240.139 17.964C239.875 17.856 239.665 17.688 239.509 17.46C239.365 17.22 239.293 16.944 239.293 16.632C239.293 16.188 239.431 15.828 239.707 15.552C239.983 15.276 240.331 15.138 240.751 15.138ZM252.964 5.4V6.966L248.068 18H245.566L250.3 7.38H245.35V9.522H243.172V5.4H252.964ZM259.316 18.18C258.308 18.18 257.408 17.928 256.616 17.424C255.824 16.908 255.2 16.164 254.744 15.192C254.288 14.208 254.06 13.044 254.06 11.7C254.06 10.356 254.288 9.198 254.744 8.226C255.2 7.242 255.824 6.498 256.616 5.994C257.408 5.478 258.308 5.22 259.316 5.22C260.324 5.22 261.224 5.478 262.016 5.994C262.82 6.498 263.45 7.242 263.906 8.226C264.362 9.198 264.59 10.356 264.59 11.7C264.59 13.044 264.362 14.208 263.906 15.192C263.45 16.164 262.82 16.908 262.016 17.424C261.224 17.928 260.324 18.18 259.316 18.18ZM259.316 16.146C260.216 16.146 260.924 15.774 261.44 15.03C261.968 14.286 262.232 13.176 262.232 11.7C262.232 10.224 261.968 9.114 261.44 8.37C260.924 7.626 260.216 7.254 259.316 7.254C258.428 7.254 257.72 7.626 257.192 8.37C256.676 9.114 256.418 10.224 256.418 11.7C256.418 13.176 256.676 14.286 257.192 15.03C257.72 15.774 258.428 16.146 259.316 16.146Z" fill="black"/>
<path d="M182.87 30.418V33.834H187.784V35.038H182.87V39H181.47V29.2H188.386V30.418H182.87ZM192.603 31.51C193.63 31.51 194.414 31.762 194.955 32.266C195.506 32.77 195.781 33.5213 195.781 34.52V39H194.507V38.02C194.283 38.3653 193.961 38.6313 193.541 38.818C193.13 38.9953 192.64 39.084 192.071 39.084C191.24 39.084 190.573 38.8833 190.069 38.482C189.574 38.0807 189.327 37.5533 189.327 36.9C189.327 36.2467 189.565 35.724 190.041 35.332C190.517 34.9307 191.273 34.73 192.309 34.73H194.437V34.464C194.437 33.8853 194.269 33.442 193.933 33.134C193.597 32.826 193.102 32.672 192.449 32.672C192.01 32.672 191.581 32.7467 191.161 32.896C190.741 33.036 190.386 33.2273 190.097 33.47L189.537 32.462C189.92 32.154 190.377 31.9207 190.909 31.762C191.441 31.594 192.006 31.51 192.603 31.51ZM192.295 38.048C192.808 38.048 193.252 37.936 193.625 37.712C193.998 37.4787 194.269 37.152 194.437 36.732V35.696H192.365C191.226 35.696 190.657 36.0787 190.657 36.844C190.657 37.2173 190.802 37.5113 191.091 37.726C191.38 37.9407 191.782 38.048 192.295 38.048ZM202.44 38.566C202.244 38.734 202.001 38.8647 201.712 38.958C201.423 39.042 201.124 39.084 200.816 39.084C200.069 39.084 199.491 38.8833 199.08 38.482C198.669 38.0807 198.464 37.5067 198.464 36.76V32.686H197.204V31.58H198.464V29.956H199.808V31.58H201.936V32.686H199.808V36.704C199.808 37.1053 199.906 37.4133 200.102 37.628C200.307 37.8427 200.597 37.95 200.97 37.95C201.381 37.95 201.731 37.8333 202.02 37.6L202.44 38.566ZM210.981 31.58V39H209.707V37.88C209.436 38.2627 209.077 38.5613 208.629 38.776C208.19 38.9813 207.71 39.084 207.187 39.084C206.198 39.084 205.418 38.8133 204.849 38.272C204.28 37.7213 203.995 36.914 203.995 35.85V31.58H205.339V35.696C205.339 36.4147 205.512 36.9607 205.857 37.334C206.202 37.698 206.697 37.88 207.341 37.88C208.05 37.88 208.61 37.6653 209.021 37.236C209.432 36.8067 209.637 36.2 209.637 35.416V31.58H210.981ZM214.828 32.826C215.061 32.3967 215.406 32.07 215.864 31.846C216.321 31.622 216.876 31.51 217.53 31.51V32.812C217.455 32.8027 217.352 32.798 217.222 32.798C216.494 32.798 215.92 33.0173 215.5 33.456C215.089 33.8853 214.884 34.5013 214.884 35.304V39H213.54V31.58H214.828V32.826ZM221.874 31.51C222.901 31.51 223.685 31.762 224.226 32.266C224.777 32.77 225.052 33.5213 225.052 34.52V39H223.778V38.02C223.554 38.3653 223.232 38.6313 222.812 38.818C222.402 38.9953 221.912 39.084 221.342 39.084C220.512 39.084 219.844 38.8833 219.34 38.482C218.846 38.0807 218.598 37.5533 218.598 36.9C218.598 36.2467 218.836 35.724 219.312 35.332C219.788 34.9307 220.544 34.73 221.58 34.73H223.708V34.464C223.708 33.8853 223.54 33.442 223.204 33.134C222.868 32.826 222.374 32.672 221.72 32.672C221.282 32.672 220.852 32.7467 220.432 32.896C220.012 33.036 219.658 33.2273 219.368 33.47L218.808 32.462C219.191 32.154 219.648 31.9207 220.18 31.762C220.712 31.594 221.277 31.51 221.874 31.51ZM221.566 38.048C222.08 38.048 222.523 37.936 222.896 37.712C223.27 37.4787 223.54 37.152 223.708 36.732V35.696H221.636C220.498 35.696 219.928 36.0787 219.928 36.844C219.928 37.2173 220.073 37.5113 220.362 37.726C220.652 37.9407 221.053 38.048 221.566 38.048ZM234.001 31.51C235.028 31.51 235.812 31.762 236.353 32.266C236.904 32.77 237.179 33.5213 237.179 34.52V39H235.905V38.02C235.681 38.3653 235.359 38.6313 234.939 38.818C234.529 38.9953 234.039 39.084 233.469 39.084C232.639 39.084 231.971 38.8833 231.467 38.482C230.973 38.0807 230.725 37.5533 230.725 36.9C230.725 36.2467 230.963 35.724 231.439 35.332C231.915 34.9307 232.671 34.73 233.707 34.73H235.835V34.464C235.835 33.8853 235.667 33.442 235.331 33.134C234.995 32.826 234.501 32.672 233.847 32.672C233.409 32.672 232.979 32.7467 232.559 32.896C232.139 33.036 231.785 33.2273 231.495 33.47L230.935 32.462C231.318 32.154 231.775 31.9207 232.307 31.762C232.839 31.594 233.404 31.51 234.001 31.51ZM233.693 38.048C234.207 38.048 234.65 37.936 235.023 37.712C235.397 37.4787 235.667 37.152 235.835 36.732V35.696H233.763C232.625 35.696 232.055 36.0787 232.055 36.844C232.055 37.2173 232.2 37.5113 232.489 37.726C232.779 37.9407 233.18 38.048 233.693 38.048ZM243.839 38.566C243.643 38.734 243.4 38.8647 243.111 38.958C242.821 39.042 242.523 39.084 242.215 39.084C241.468 39.084 240.889 38.8833 240.479 38.482C240.068 38.0807 239.863 37.5067 239.863 36.76V32.686H238.603V31.58H239.863V29.956H241.207V31.58H243.335V32.686H241.207V36.704C241.207 37.1053 241.305 37.4133 241.501 37.628C241.706 37.8427 241.995 37.95 242.369 37.95C242.779 37.95 243.129 37.8333 243.419 37.6L243.839 38.566ZM252.379 31.58V39H251.105V37.88C250.835 38.2627 250.475 38.5613 250.027 38.776C249.589 38.9813 249.108 39.084 248.585 39.084C247.596 39.084 246.817 38.8133 246.247 38.272C245.678 37.7213 245.393 36.914 245.393 35.85V31.58H246.737V35.696C246.737 36.4147 246.91 36.9607 247.255 37.334C247.601 37.698 248.095 37.88 248.739 37.88C249.449 37.88 250.009 37.6653 250.419 37.236C250.83 36.8067 251.035 36.2 251.035 35.416V31.58H252.379ZM257.64 31.51C258.667 31.51 259.451 31.762 259.992 32.266C260.543 32.77 260.818 33.5213 260.818 34.52V39H259.544V38.02C259.32 38.3653 258.998 38.6313 258.578 38.818C258.167 38.9953 257.677 39.084 257.108 39.084C256.277 39.084 255.61 38.8833 255.106 38.482C254.611 38.0807 254.364 37.5533 254.364 36.9C254.364 36.2467 254.602 35.724 255.078 35.332C255.554 34.9307 256.31 34.73 257.346 34.73H259.474V34.464C259.474 33.8853 259.306 33.442 258.97 33.134C258.634 32.826 258.139 32.672 257.486 32.672C257.047 32.672 256.618 32.7467 256.198 32.896C255.778 33.036 255.423 33.2273 255.134 33.47L254.574 32.462C254.957 32.154 255.414 31.9207 255.946 31.762C256.478 31.594 257.043 31.51 257.64 31.51ZM257.332 38.048C257.845 38.048 258.289 37.936 258.662 37.712C259.035 37.4787 259.306 37.152 259.474 36.732V35.696H257.402C256.263 35.696 255.694 36.0787 255.694 36.844C255.694 37.2173 255.839 37.5113 256.128 37.726C256.417 37.9407 256.819 38.048 257.332 38.048ZM263.305 28.612H264.649V39H263.305V28.612Z" fill="#7A7A80"/>
<circle cx="166" cy="23" r="3" fill="#009BDD"/>
<path d="M315.936 18L313.362 14.31C313.254 14.322 313.092 14.328 312.876 14.328H310.032V18H307.692V5.4H312.876C313.968 5.4 314.916 5.58 315.72 5.94C316.536 6.3 317.16 6.816 317.592 7.488C318.024 8.16 318.24 8.958 318.24 9.882C318.24 10.83 318.006 11.646 317.538 12.33C317.082 13.014 316.422 13.524 315.558 13.86L318.456 18H315.936ZM315.882 9.882C315.882 9.078 315.618 8.46 315.09 8.028C314.562 7.596 313.788 7.38 312.768 7.38H310.032V12.402H312.768C313.788 12.402 314.562 12.186 315.09 11.754C315.618 11.31 315.882 10.686 315.882 9.882ZM329.858 14.436C329.858 15.408 329.498 16.236 328.778 16.92C328.07 17.592 327.038 18 325.682 18.144V20.16H324.206V18.162C323.318 18.102 322.478 17.94 321.686 17.676C320.894 17.412 320.264 17.076 319.796 16.668L320.606 14.85C321.05 15.21 321.59 15.516 322.226 15.768C322.862 16.008 323.522 16.158 324.206 16.218V12.618C323.354 12.414 322.64 12.192 322.064 11.952C321.5 11.7 321.026 11.34 320.642 10.872C320.258 10.392 320.066 9.762 320.066 8.982C320.066 8.01 320.42 7.182 321.128 6.498C321.836 5.814 322.862 5.406 324.206 5.274V3.24H325.682V5.238C326.354 5.274 327.008 5.388 327.644 5.58C328.292 5.772 328.856 6.024 329.336 6.336L328.598 8.154C327.686 7.626 326.714 7.302 325.682 7.182V10.818C326.546 11.022 327.26 11.244 327.824 11.484C328.4 11.724 328.88 12.084 329.264 12.564C329.66 13.032 329.858 13.656 329.858 14.436ZM322.388 8.874C322.388 9.27 322.544 9.588 322.856 9.828C323.168 10.068 323.618 10.272 324.206 10.44V7.236C323.594 7.332 323.138 7.524 322.838 7.812C322.538 8.1 322.388 8.454 322.388 8.874ZM325.682 16.182C326.318 16.086 326.786 15.9 327.086 15.624C327.398 15.348 327.554 15.006 327.554 14.598C327.554 14.19 327.392 13.866 327.068 13.626C326.744 13.374 326.282 13.164 325.682 12.996V16.182ZM345.379 16.02V18H336.091V16.434L341.095 11.682C341.659 11.142 342.037 10.674 342.229 10.278C342.433 9.87 342.535 9.468 342.535 9.072C342.535 8.484 342.337 8.034 341.941 7.722C341.545 7.41 340.963 7.254 340.195 7.254C338.911 7.254 337.927 7.692 337.243 8.568L335.605 7.308C336.097 6.648 336.757 6.138 337.585 5.778C338.425 5.406 339.361 5.22 340.393 5.22C341.761 5.22 342.853 5.544 343.669 6.192C344.485 6.84 344.893 7.722 344.893 8.838C344.893 9.522 344.749 10.164 344.461 10.764C344.173 11.364 343.621 12.048 342.805 12.816L339.439 16.02H345.379ZM352.401 10.224C353.229 10.224 353.973 10.386 354.633 10.71C355.293 11.022 355.809 11.472 356.181 12.06C356.553 12.648 356.739 13.326 356.739 14.094C356.739 14.91 356.535 15.63 356.127 16.254C355.719 16.866 355.167 17.34 354.471 17.676C353.775 18.012 352.995 18.18 352.131 18.18C350.403 18.18 349.059 17.64 348.099 16.56C347.151 15.48 346.677 13.932 346.677 11.916C346.677 10.5 346.935 9.294 347.451 8.298C347.967 7.29 348.687 6.528 349.611 6.012C350.547 5.484 351.627 5.22 352.851 5.22C353.499 5.22 354.105 5.292 354.669 5.436C355.245 5.568 355.743 5.766 356.163 6.03L355.299 7.794C354.675 7.386 353.877 7.182 352.905 7.182C351.693 7.182 350.745 7.554 350.061 8.298C349.377 9.042 349.035 10.116 349.035 11.52V11.538C349.407 11.106 349.881 10.782 350.457 10.566C351.033 10.338 351.681 10.224 352.401 10.224ZM352.005 16.344C352.737 16.344 353.331 16.152 353.787 15.768C354.243 15.372 354.471 14.85 354.471 14.202C354.471 13.542 354.243 13.02 353.787 12.636C353.331 12.252 352.719 12.06 351.951 12.06C351.195 12.06 350.577 12.264 350.097 12.672C349.629 13.08 349.395 13.596 349.395 14.22C349.395 14.832 349.623 15.342 350.079 15.75C350.547 16.146 351.189 16.344 352.005 16.344ZM369.194 15.138H366.962V18H364.694V15.138H357.782V13.518L363.992 5.4H366.494L360.644 13.158H364.766V10.62H366.962V13.158H369.194V15.138ZM371.952 15.138C372.372 15.138 372.72 15.276 372.996 15.552C373.272 15.828 373.41 16.188 373.41 16.632C373.41 16.824 373.38 17.028 373.32 17.244C373.272 17.448 373.164 17.76 372.996 18.18L372.078 20.718H370.62L371.34 17.964C371.076 17.856 370.866 17.688 370.71 17.46C370.566 17.22 370.494 16.944 370.494 16.632C370.494 16.188 370.632 15.828 370.908 15.552C371.184 15.276 371.532 15.138 371.952 15.138ZM379.173 5.22C380.901 5.22 382.239 5.76 383.187 6.84C384.147 7.92 384.627 9.468 384.627 11.484C384.627 12.9 384.369 14.112 383.853 15.12C383.337 16.116 382.611 16.878 381.675 17.406C380.751 17.922 379.677 18.18 378.453 18.18C377.805 18.18 377.193 18.114 376.617 17.982C376.053 17.838 375.561 17.634 375.141 17.37L376.005 15.606C376.629 16.014 377.427 16.218 378.399 16.218C379.611 16.218 380.559 15.846 381.243 15.102C381.927 14.358 382.269 13.284 382.269 11.88V11.862C381.897 12.294 381.423 12.624 380.847 12.852C380.271 13.068 379.623 13.176 378.903 13.176C378.075 13.176 377.331 13.02 376.671 12.708C376.011 12.384 375.495 11.928 375.123 11.34C374.751 10.752 374.565 10.074 374.565 9.306C374.565 8.49 374.769 7.776 375.177 7.164C375.585 6.54 376.137 6.06 376.833 5.724C377.529 5.388 378.309 5.22 379.173 5.22ZM379.353 11.34C380.109 11.34 380.721 11.136 381.189 10.728C381.669 10.32 381.909 9.804 381.909 9.18C381.909 8.568 381.675 8.064 381.207 7.668C380.751 7.26 380.115 7.056 379.299 7.056C378.567 7.056 377.973 7.254 377.517 7.65C377.061 8.034 376.833 8.55 376.833 9.198C376.833 9.858 377.061 10.38 377.517 10.764C377.973 11.148 378.585 11.34 379.353 11.34ZM394.382 11.376C395.042 11.676 395.546 12.084 395.894 12.6C396.254 13.104 396.434 13.698 396.434 14.382C396.434 15.15 396.218 15.822 395.786 16.398C395.366 16.974 394.766 17.418 393.986 17.73C393.206 18.03 392.3 18.18 391.268 18.18C390.236 18.18 389.33 18.03 388.55 17.73C387.782 17.418 387.188 16.974 386.768 16.398C386.348 15.822 386.138 15.15 386.138 14.382C386.138 13.698 386.312 13.104 386.66 12.6C387.008 12.084 387.506 11.676 388.154 11.376C387.65 11.1 387.26 10.74 386.984 10.296C386.72 9.84 386.588 9.318 386.588 8.73C386.588 8.022 386.78 7.404 387.164 6.876C387.56 6.348 388.112 5.94 388.82 5.652C389.528 5.364 390.344 5.22 391.268 5.22C392.204 5.22 393.026 5.364 393.734 5.652C394.442 5.94 394.994 6.348 395.39 6.876C395.786 7.404 395.984 8.022 395.984 8.73C395.984 9.318 395.846 9.834 395.57 10.278C395.294 10.722 394.898 11.088 394.382 11.376ZM391.268 7.056C390.536 7.056 389.954 7.212 389.522 7.524C389.102 7.836 388.892 8.274 388.892 8.838C388.892 9.378 389.102 9.81 389.522 10.134C389.954 10.446 390.536 10.602 391.268 10.602C392.012 10.602 392.6 10.446 393.032 10.134C393.464 9.81 393.68 9.378 393.68 8.838C393.68 8.274 393.458 7.836 393.014 7.524C392.582 7.212 392 7.056 391.268 7.056ZM391.268 16.344C392.132 16.344 392.816 16.164 393.32 15.804C393.824 15.444 394.076 14.946 394.076 14.31C394.076 13.686 393.824 13.194 393.32 12.834C392.816 12.474 392.132 12.294 391.268 12.294C390.404 12.294 389.726 12.474 389.234 12.834C388.742 13.194 388.496 13.686 388.496 14.31C388.496 14.946 388.742 15.444 389.234 15.804C389.726 16.164 390.404 16.344 391.268 16.344Z" fill="black"/>
<path d="M312.292 29.2C313.561 29.2 314.56 29.5033 315.288 30.11C316.016 30.7167 316.38 31.552 316.38 32.616C316.38 33.68 316.016 34.5153 315.288 35.122C314.56 35.7287 313.561 36.032 312.292 36.032H309.87V39H308.47V29.2H312.292ZM312.25 34.814C313.137 34.814 313.813 34.6273 314.28 34.254C314.747 33.8713 314.98 33.3253 314.98 32.616C314.98 31.9067 314.747 31.3653 314.28 30.992C313.813 30.6093 313.137 30.418 312.25 30.418H309.87V34.814H312.25ZM319.406 32.826C319.639 32.3967 319.984 32.07 320.442 31.846C320.899 31.622 321.454 31.51 322.108 31.51V32.812C322.033 32.8027 321.93 32.798 321.8 32.798C321.072 32.798 320.498 33.0173 320.078 33.456C319.667 33.8853 319.462 34.5013 319.462 35.304V39H318.118V31.58H319.406V32.826ZM326.874 39.084C326.137 39.084 325.474 38.9207 324.886 38.594C324.298 38.2673 323.836 37.8193 323.5 37.25C323.173 36.6713 323.01 36.018 323.01 35.29C323.01 34.562 323.173 33.9133 323.5 33.344C323.836 32.7653 324.298 32.3173 324.886 32C325.474 31.6733 326.137 31.51 326.874 31.51C327.611 31.51 328.269 31.6733 328.848 32C329.436 32.3173 329.893 32.7653 330.22 33.344C330.556 33.9133 330.724 34.562 330.724 35.29C330.724 36.018 330.556 36.6713 330.22 37.25C329.893 37.8193 329.436 38.2673 328.848 38.594C328.269 38.9207 327.611 39.084 326.874 39.084ZM326.874 37.908C327.35 37.908 327.775 37.8007 328.148 37.586C328.531 37.362 328.829 37.054 329.044 36.662C329.259 36.2607 329.366 35.8033 329.366 35.29C329.366 34.7767 329.259 34.324 329.044 33.932C328.829 33.5307 328.531 33.2227 328.148 33.008C327.775 32.7933 327.35 32.686 326.874 32.686C326.398 32.686 325.969 32.7933 325.586 33.008C325.213 33.2227 324.914 33.5307 324.69 33.932C324.475 34.324 324.368 34.7767 324.368 35.29C324.368 35.8033 324.475 36.2607 324.69 36.662C324.914 37.054 325.213 37.362 325.586 37.586C325.969 37.8007 326.398 37.908 326.874 37.908ZM327.714 28.682H329.422L327.07 30.502H325.81L327.714 28.682ZM337.069 39L334.927 36.158L332.757 39H331.259L334.185 35.206L331.399 31.58H332.897L334.941 34.254L336.971 31.58H338.441L335.641 35.206L338.595 39H337.069ZM340.061 31.58H341.405V39H340.061V31.58ZM340.733 30.152C340.472 30.152 340.252 30.068 340.075 29.9C339.907 29.732 339.823 29.5267 339.823 29.284C339.823 29.0413 339.907 28.836 340.075 28.668C340.252 28.4907 340.472 28.402 340.733 28.402C340.994 28.402 341.209 28.486 341.377 28.654C341.554 28.8127 341.643 29.0133 341.643 29.256C341.643 29.508 341.554 29.7227 341.377 29.9C341.209 30.068 340.994 30.152 340.733 30.152ZM353.253 31.51C354.187 31.51 354.924 31.7807 355.465 32.322C356.016 32.8633 356.291 33.666 356.291 34.73V39H354.947V34.884C354.947 34.1653 354.779 33.624 354.443 33.26C354.117 32.896 353.645 32.714 353.029 32.714C352.348 32.714 351.807 32.9287 351.405 33.358C351.004 33.778 350.803 34.3847 350.803 35.178V39H349.459V34.884C349.459 34.1653 349.291 33.624 348.955 33.26C348.629 32.896 348.157 32.714 347.541 32.714C346.86 32.714 346.319 32.9287 345.917 33.358C345.516 33.778 345.315 34.3847 345.315 35.178V39H343.971V31.58H345.259V32.686C345.53 32.3033 345.885 32.014 346.323 31.818C346.762 31.6127 347.261 31.51 347.821 31.51C348.4 31.51 348.913 31.6267 349.361 31.86C349.809 32.0933 350.155 32.434 350.397 32.882C350.677 32.4527 351.065 32.1167 351.559 31.874C352.063 31.6313 352.628 31.51 353.253 31.51ZM361.466 31.51C362.493 31.51 363.277 31.762 363.818 32.266C364.369 32.77 364.644 33.5213 364.644 34.52V39H363.37V38.02C363.146 38.3653 362.824 38.6313 362.404 38.818C361.994 38.9953 361.504 39.084 360.934 39.084C360.104 39.084 359.436 38.8833 358.932 38.482C358.438 38.0807 358.19 37.5533 358.19 36.9C358.19 36.2467 358.428 35.724 358.904 35.332C359.38 34.9307 360.136 34.73 361.172 34.73H363.3V34.464C363.3 33.8853 363.132 33.442 362.796 33.134C362.46 32.826 361.966 32.672 361.312 32.672C360.874 32.672 360.444 32.7467 360.024 32.896C359.604 33.036 359.25 33.2273 358.96 33.47L358.4 32.462C358.783 32.154 359.24 31.9207 359.772 31.762C360.304 31.594 360.869 31.51 361.466 31.51ZM361.158 38.048C361.672 38.048 362.115 37.936 362.488 37.712C362.862 37.4787 363.132 37.152 363.3 36.732V35.696H361.228C360.09 35.696 359.52 36.0787 359.52 36.844C359.52 37.2173 359.665 37.5113 359.954 37.726C360.244 37.9407 360.645 38.048 361.158 38.048ZM369.259 39.084C368.653 39.084 368.069 39.0047 367.509 38.846C366.949 38.678 366.511 38.468 366.193 38.216L366.753 37.152C367.08 37.3853 367.477 37.572 367.943 37.712C368.41 37.852 368.881 37.922 369.357 37.922C370.533 37.922 371.121 37.586 371.121 36.914C371.121 36.69 371.042 36.5127 370.883 36.382C370.725 36.2513 370.524 36.158 370.281 36.102C370.048 36.0367 369.712 35.9667 369.273 35.892C368.676 35.7987 368.186 35.6913 367.803 35.57C367.43 35.4487 367.108 35.2433 366.837 34.954C366.567 34.6647 366.431 34.2587 366.431 33.736C366.431 33.064 366.711 32.5273 367.271 32.126C367.831 31.7153 368.583 31.51 369.525 31.51C370.02 31.51 370.515 31.5707 371.009 31.692C371.504 31.8133 371.91 31.9767 372.227 32.182L371.653 33.246C371.047 32.854 370.333 32.658 369.511 32.658C368.942 32.658 368.508 32.7513 368.209 32.938C367.911 33.1247 367.761 33.372 367.761 33.68C367.761 33.9227 367.845 34.114 368.013 34.254C368.181 34.394 368.387 34.4967 368.629 34.562C368.881 34.6273 369.231 34.702 369.679 34.786C370.277 34.8887 370.757 35.0007 371.121 35.122C371.495 35.234 371.812 35.43 372.073 35.71C372.335 35.99 372.465 36.382 372.465 36.886C372.465 37.558 372.176 38.0947 371.597 38.496C371.028 38.888 370.249 39.084 369.259 39.084ZM380.621 29.634C379.818 29.634 379.417 30.068 379.417 30.936V31.58H381.573V32.686H379.445V39H378.101V32.686H376.841V31.58H378.101V30.922C378.101 30.1847 378.316 29.6013 378.745 29.172C379.174 28.7427 379.776 28.528 380.551 28.528C380.85 28.528 381.13 28.5653 381.391 28.64C381.652 28.7147 381.876 28.822 382.063 28.962L381.657 29.984C381.349 29.7507 381.004 29.634 380.621 29.634ZM385.406 31.51C386.432 31.51 387.216 31.762 387.758 32.266C388.308 32.77 388.584 33.5213 388.584 34.52V39H387.31V38.02C387.086 38.3653 386.764 38.6313 386.344 38.818C385.933 38.9953 385.443 39.084 384.874 39.084C384.043 39.084 383.376 38.8833 382.872 38.482C382.377 38.0807 382.13 37.5533 382.13 36.9C382.13 36.2467 382.368 35.724 382.844 35.332C383.32 34.9307 384.076 34.73 385.112 34.73H387.24V34.464C387.24 33.8853 387.072 33.442 386.736 33.134C386.4 32.826 385.905 32.672 385.252 32.672C384.813 32.672 384.384 32.7467 383.964 32.896C383.544 33.036 383.189 33.2273 382.9 33.47L382.34 32.462C382.722 32.154 383.18 31.9207 383.712 31.762C384.244 31.594 384.808 31.51 385.406 31.51ZM385.098 38.048C385.611 38.048 386.054 37.936 386.428 37.712C386.801 37.4787 387.072 37.152 387.24 36.732V35.696H385.168C384.029 35.696 383.46 36.0787 383.46 36.844C383.46 37.2173 383.604 37.5113 383.894 37.726C384.183 37.9407 384.584 38.048 385.098 38.048ZM395.243 38.566C395.047 38.734 394.804 38.8647 394.515 38.958C394.226 39.042 393.927 39.084 393.619 39.084C392.872 39.084 392.294 38.8833 391.883 38.482C391.472 38.0807 391.267 37.5067 391.267 36.76V32.686H390.007V31.58H391.267V29.956H392.611V31.58H394.739V32.686H392.611V36.704C392.611 37.1053 392.709 37.4133 392.905 37.628C393.11 37.8427 393.4 37.95 393.773 37.95C394.184 37.95 394.534 37.8333 394.823 37.6L395.243 38.566ZM403.784 31.58V39H402.51V37.88C402.239 38.2627 401.88 38.5613 401.432 38.776C400.993 38.9813 400.512 39.084 399.99 39.084C399 39.084 398.221 38.8133 397.652 38.272C397.082 37.7213 396.798 36.914 396.798 35.85V31.58H398.142V35.696C398.142 36.4147 398.314 36.9607 398.66 37.334C399.005 37.698 399.5 37.88 400.144 37.88C400.853 37.88 401.413 37.6653 401.824 37.236C402.234 36.8067 402.44 36.2 402.44 35.416V31.58H403.784ZM407.63 32.826C407.864 32.3967 408.209 32.07 408.666 31.846C409.124 31.622 409.679 31.51 410.332 31.51V32.812C410.258 32.8027 410.155 32.798 410.024 32.798C409.296 32.798 408.722 33.0173 408.302 33.456C407.892 33.8853 407.686 34.5013 407.686 35.304V39H406.342V31.58H407.63V32.826ZM414.677 31.51C415.704 31.51 416.488 31.762 417.029 32.266C417.58 32.77 417.855 33.5213 417.855 34.52V39H416.581V38.02C416.357 38.3653 416.035 38.6313 415.615 38.818C415.205 38.9953 414.715 39.084 414.145 39.084C413.315 39.084 412.647 38.8833 412.143 38.482C411.649 38.0807 411.401 37.5533 411.401 36.9C411.401 36.2467 411.639 35.724 412.115 35.332C412.591 34.9307 413.347 34.73 414.383 34.73H416.511V34.464C416.511 33.8853 416.343 33.442 416.007 33.134C415.671 32.826 415.177 32.672 414.523 32.672C414.085 32.672 413.655 32.7467 413.235 32.896C412.815 33.036 412.461 33.2273 412.171 33.47L411.611 32.462C411.994 32.154 412.451 31.9207 412.983 31.762C413.515 31.594 414.08 31.51 414.677 31.51ZM414.369 38.048C414.883 38.048 415.326 37.936 415.699 37.712C416.073 37.4787 416.343 37.152 416.511 36.732V35.696H414.439C413.301 35.696 412.731 36.0787 412.731 36.844C412.731 37.2173 412.876 37.5113 413.165 37.726C413.455 37.9407 413.856 38.048 414.369 38.048ZM422.47 39.084C421.864 39.084 421.28 39.0047 420.72 38.846C420.16 38.678 419.722 38.468 419.404 38.216L419.964 37.152C420.291 37.3853 420.688 37.572 421.154 37.712C421.621 37.852 422.092 37.922 422.568 37.922C423.744 37.922 424.332 37.586 424.332 36.914C424.332 36.69 424.253 36.5127 424.094 36.382C423.936 36.2513 423.735 36.158 423.492 36.102C423.259 36.0367 422.923 35.9667 422.484 35.892C421.887 35.7987 421.397 35.6913 421.014 35.57C420.641 35.4487 420.319 35.2433 420.048 34.954C419.778 34.6647 419.642 34.2587 419.642 33.736C419.642 33.064 419.922 32.5273 420.482 32.126C421.042 31.7153 421.794 31.51 422.736 31.51C423.231 31.51 423.726 31.5707 424.22 31.692C424.715 31.8133 425.121 31.9767 425.438 32.182L424.864 33.246C424.258 32.854 423.544 32.658 422.722 32.658C422.153 32.658 421.719 32.7513 421.42 32.938C421.122 33.1247 420.972 33.372 420.972 33.68C420.972 33.9227 421.056 34.114 421.224 34.254C421.392 34.394 421.598 34.4967 421.84 34.562C422.092 34.6273 422.442 34.702 422.89 34.786C423.488 34.8887 423.968 35.0007 424.332 35.122C424.706 35.234 425.023 35.43 425.284 35.71C425.546 35.99 425.676 36.382 425.676 36.886C425.676 37.558 425.387 38.0947 424.808 38.496C424.239 38.888 423.46 39.084 422.47 39.084Z" fill="#7A7A80"/>
<circle cx="293" cy="23" r="3" fill="#FF7900"/>
</svg>
